<svg width="9" height="14" viewBox="0 0 9 14" fill="none" xmlns="http://www.w3.org/2000/svg">
<path d="M7.9097 13.6072C8.15706 13.3583 8.2959 13.0217 8.2959 12.6709C8.2959 12.32 8.15706 11.9834 7.9097 11.7346L3.20833 6.9668L7.9097 2.26542C8.15706 2.01659 8.2959 1.67999 8.2959 1.32913C8.2959 0.978274 8.15706 0.641672 7.90971 0.392841C7.78624 0.268363 7.63936 0.169562 7.47752 0.102138C7.31568 0.0347131 7.1421 -5.04343e-08 6.96677 -5.80979e-08C6.79145 -6.57614e-08 6.61787 0.0347131 6.45603 0.102138C6.29419 0.169562 6.1473 0.268363 6.02384 0.392841L0.392817 6.02387C0.268339 6.14733 0.169538 6.29421 0.102113 6.45605C0.0346896 6.61789 -2.41387e-05 6.79148 -2.41464e-05 6.9668C-2.4154e-05 7.14212 0.0346896 7.3157 0.102113 7.47754C0.169538 7.63938 0.268339 7.78627 0.392817 7.90973L6.02384 13.6072C6.1473 13.7316 6.29419 13.8304 6.45603 13.8979C6.61787 13.9653 6.79145 14 6.96677 14C7.14209 14 7.31568 13.9653 7.47752 13.8979C7.63936 13.8304 7.78624 13.7316 7.9097 13.6072Z" fill="black"/>
</svg>
