<svg width="8" height="8" viewBox="0 0 8 8" fill="none" xmlns="http://www.w3.org/2000/svg">
<path d="M4.46965 4L6.56965 1.90333C6.63242 1.84056 6.66768 1.75543 6.66768 1.66666C6.66768 1.5779 6.63242 1.49276 6.56965 1.43C6.50689 1.36723 6.42175 1.33197 6.33299 1.33197C6.24422 1.33197 6.15909 1.36723 6.09632 1.43L3.99965 3.53L1.90299 1.43C1.84022 1.36723 1.75509 1.33197 1.66632 1.33197C1.57755 1.33197 1.49242 1.36723 1.42965 1.43C1.36689 1.49276 1.33162 1.5779 1.33162 1.66666C1.33162 1.75543 1.36689 1.84056 1.42965 1.90333L3.52965 4L1.42965 6.09666C1.39841 6.12765 1.37361 6.16452 1.35669 6.20514C1.33977 6.24576 1.33105 6.28933 1.33105 6.33333C1.33105 6.37733 1.33977 6.4209 1.35669 6.46152C1.37361 6.50214 1.39841 6.53901 1.42965 6.57C1.46064 6.60124 1.49751 6.62604 1.53813 6.64296C1.57875 6.65988 1.62232 6.6686 1.66632 6.6686C1.71032 6.6686 1.75389 6.65988 1.79451 6.64296C1.83513 6.62604 1.872 6.60124 1.90299 6.57L3.99965 4.47L6.09632 6.57C6.12731 6.60124 6.16417 6.62604 6.20479 6.64296C6.24541 6.65988 6.28898 6.6686 6.33299 6.6686C6.37699 6.6686 6.42056 6.65988 6.46118 6.64296C6.5018 6.62604 6.53867 6.60124 6.56965 6.57C6.6009 6.53901 6.62569 6.50214 6.64262 6.46152C6.65954 6.4209 6.66825 6.37733 6.66825 6.33333C6.66825 6.28933 6.65954 6.24576 6.64262 6.20514C6.62569 6.16452 6.6009 6.12765 6.56965 6.09666L4.46965 4Z" fill="black"/>
</svg>
