<svg width="16" height="14" viewBox="0 0 16 14" fill="none" xmlns="http://www.w3.org/2000/svg">
<path d="M13.3334 5.99996C13.1566 5.99996 12.987 6.0702 12.862 6.19522C12.737 6.32025 12.6667 6.48982 12.6667 6.66663V11.3333C12.6667 11.5101 12.5965 11.6797 12.4715 11.8047C12.3465 11.9297 12.1769 12 12.0001 12H2.66675C2.48994 12 2.32037 11.9297 2.19534 11.8047C2.07032 11.6797 2.00008 11.5101 2.00008 11.3333V5.99996C2.00008 5.82315 2.07032 5.65358 2.19534 5.52856C2.32037 5.40353 2.48994 5.33329 2.66675 5.33329H4.00008C4.14546 5.34088 4.28932 5.30068 4.4097 5.21882C4.53008 5.13696 4.62036 5.01795 4.66675 4.87996L5.02675 3.78663C5.07147 3.65421 5.15668 3.5392 5.27033 3.45785C5.38398 3.37651 5.52032 3.33293 5.66008 3.33329H9.33341C9.51022 3.33329 9.67979 3.26305 9.80482 3.13803C9.92984 3.01301 10.0001 2.84344 10.0001 2.66663C10.0001 2.48982 9.92984 2.32025 9.80482 2.19522C9.67979 2.0702 9.51022 1.99996 9.33341 1.99996H5.62675C5.20778 2.00074 4.79964 2.13308 4.45993 2.3783C4.12021 2.62351 3.86609 2.96922 3.73341 3.36663L3.52008 4.03329H2.66675C2.13631 4.03329 1.62761 4.24401 1.25253 4.61908C0.877462 4.99415 0.666748 5.50286 0.666748 6.03329V11.3666C0.666748 11.8971 0.877462 12.4058 1.25253 12.7808C1.62761 13.1559 2.13631 13.3666 2.66675 13.3666H12.0001C12.5305 13.3666 13.0392 13.1559 13.4143 12.7808C13.7894 12.4058 14.0001 11.8971 14.0001 11.3666V6.69996C14.0046 6.60965 13.9907 6.51936 13.9592 6.43459C13.9278 6.34982 13.8794 6.27234 13.817 6.20686C13.7546 6.14138 13.6796 6.08927 13.5965 6.0537C13.5133 6.01813 13.4238 5.99985 13.3334 5.99996ZM7.33341 5.33329C6.806 5.33329 6.29042 5.48969 5.85189 5.78271C5.41336 6.07573 5.07157 6.4922 4.86974 6.97947C4.6679 7.46674 4.61509 8.00292 4.71799 8.5202C4.82088 9.03748 5.07486 9.51264 5.4478 9.88558C5.82074 10.2585 6.29589 10.5125 6.81317 10.6154C7.33046 10.7183 7.86663 10.6655 8.3539 10.4636C8.84117 10.2618 9.25765 9.92001 9.55067 9.48148C9.84368 9.04295 10.0001 8.52738 10.0001 7.99996C10.0001 7.29272 9.71913 6.61444 9.21903 6.11434C8.71894 5.61424 8.04066 5.33329 7.33341 5.33329ZM7.33341 9.33329C7.06971 9.33329 6.81192 9.25509 6.59265 9.10859C6.37339 8.96208 6.20249 8.75384 6.10157 8.5102C6.00066 8.26657 5.97425 7.99848 6.0257 7.73984C6.07715 7.4812 6.20413 7.24362 6.3906 7.05715C6.57708 6.87068 6.81465 6.74369 7.07329 6.69225C7.33193 6.6408 7.60002 6.6672 7.84366 6.76812C8.08729 6.86904 8.29553 7.03993 8.44204 7.2592C8.58855 7.47847 8.66675 7.73625 8.66675 7.99996C8.66675 8.35358 8.52627 8.69272 8.27622 8.94277C8.02617 9.19282 7.68704 9.33329 7.33341 9.33329ZM14.6667 1.99996H14.0001V1.33329C14.0001 1.15648 13.9298 0.986912 13.8048 0.861888C13.6798 0.736864 13.5102 0.666626 13.3334 0.666626C13.1566 0.666626 12.987 0.736864 12.862 0.861888C12.737 0.986912 12.6667 1.15648 12.6667 1.33329V1.99996H12.0001C11.8233 1.99996 11.6537 2.0702 11.5287 2.19522C11.4037 2.32025 11.3334 2.48982 11.3334 2.66663C11.3334 2.84344 11.4037 3.01301 11.5287 3.13803C11.6537 3.26305 11.8233 3.33329 12.0001 3.33329H12.6667V3.99996C12.6667 4.17677 12.737 4.34634 12.862 4.47136C12.987 4.59639 13.1566 4.66663 13.3334 4.66663C13.5102 4.66663 13.6798 4.59639 13.8048 4.47136C13.9298 4.34634 14.0001 4.17677 14.0001 3.99996V3.33329H14.6667C14.8436 3.33329 15.0131 3.26305 15.1382 3.13803C15.2632 3.01301 15.3334 2.84344 15.3334 2.66663C15.3334 2.48982 15.2632 2.32025 15.1382 2.19522C15.0131 2.0702 14.8436 1.99996 14.6667 1.99996Z" fill="#3439CB"/>
</svg>
